<svg width="23" height="24" viewBox="0 0 23 24" fill="none" xmlns="http://www.w3.org/2000/svg">
<path d="M15.0014 2.46484V8.46484M15.0014 8.46484H21.0014M15.0014 8.46484L22.0014 1.46484M21.0014 17.3848V20.3848C21.0025 20.6633 20.9455 20.939 20.8339 21.1942C20.7223 21.4494 20.5587 21.6784 20.3535 21.8667C20.1483 22.055 19.906 22.1983 19.6421 22.2875C19.3783 22.3768 19.0988 22.4099 18.8214 22.3848C15.7442 22.0505 12.7884 20.999 10.1914 19.3148C7.77523 17.7795 5.72673 15.731 4.1914 13.3148C2.50138 10.706 1.44964 7.73584 1.1214 4.64484C1.09641 4.36831 1.12927 4.0896 1.2179 3.82647C1.30652 3.56333 1.44897 3.32153 1.63616 3.11646C1.82336 2.9114 2.0512 2.74755 2.30519 2.63537C2.55917 2.52318 2.83374 2.46511 3.1114 2.46484H6.1114C6.5967 2.46007 7.06719 2.63192 7.43516 2.94838C7.80313 3.26483 8.04348 3.70429 8.1114 4.18484C8.23802 5.14491 8.47285 6.08757 8.8114 6.99484C8.94594 7.35277 8.97506 7.74176 8.8953 8.11572C8.81555 8.48969 8.63026 8.83295 8.3614 9.10484L7.0914 10.3748C8.51495 12.8784 10.5879 14.9513 13.0914 16.3748L14.3614 15.1048C14.6333 14.836 14.9766 14.6507 15.3505 14.5709C15.7245 14.4912 16.1135 14.5203 16.4714 14.6548C17.3787 14.9934 18.3213 15.2282 19.2814 15.3548C19.7672 15.4234 20.2108 15.668 20.5279 16.0423C20.8451 16.4166 21.0136 16.8944 21.0014 17.3848Z" stroke="#1F55D9" stroke-width="2" stroke-linecap="round" stroke-linejoin="round"/>
</svg>
